<svg width="1600" height="2530" viewBox="0 0 1600 2530" fill="none" xmlns="http://www.w3.org/2000/svg">
<g opacity="0.8">
<g filter="url(#filter0_f_134_139)">
<path d="M117.295 667.371C-28.3193 886.285 311.261 1368.15 875.77 1743.64C1440.28 2119.13 2015.95 2246.06 2161.56 2027.15C2307.17 1808.24 1884.41 1555.4 1319.91 1179.91C755.398 804.415 262.909 448.458 117.295 667.371Z" fill="#34DBFF"/>
</g>
<g filter="url(#filter1_f_134_139)">
<path d="M693.466 747.456C649.181 884.811 662.863 1477.79 830.943 1531.98C999.022 1586.17 1640.53 1944.63 1684.81 1807.27C1729.1 1669.92 1169.3 1279.09 1001.22 1224.9C833.142 1170.71 1010.13 728.891 693.466 747.456Z" fill="#E3FFF6"/>
</g>
</g>
<defs>
<filter id="filter0_f_134_139" x="-516.418" y="0.362305" width="3306.92" height="2734.02" filterUnits="userSpaceOnUse" color-interpolation-filters="sRGB">
<feFlood flood-opacity="0" result="BackgroundImageFix"/>
<feBlend mode="normal" in="SourceGraphic" in2="BackgroundImageFix" result="shape"/>
<feGaussianBlur stdDeviation="300" result="effect1_foregroundBlur_134_139"/>
</filter>
<filter id="filter1_f_134_139" x="371.858" y="446.888" width="1615.44" height="1691.52" filterUnits="userSpaceOnUse" color-interpolation-filters="sRGB">
<feFlood flood-opacity="0" result="BackgroundImageFix"/>
<feBlend mode="normal" in="SourceGraphic" in2="BackgroundImageFix" result="shape"/>
<feGaussianBlur stdDeviation="150" result="effect1_foregroundBlur_134_139"/>
</filter>
</defs>
</svg>
