<svg width="3308" height="2735" viewBox="0 0 3308 2735" fill="none" xmlns="http://www.w3.org/2000/svg">
<g opacity="0.8">
<g filter="url(#filter0_f_134_139)">
<path d="M634.295 667.371C488.681 886.285 828.261 1368.15 1392.77 1743.64C1957.28 2119.13 2532.95 2246.06 2678.56 2027.15C2824.17 1808.24 2401.41 1555.4 1836.91 1179.91C1272.4 804.415 779.909 448.458 634.295 667.371Z" fill="#34DBFF"/>
</g>
<g filter="url(#filter1_f_134_139)">
<path d="M1210.47 747.456C1166.18 884.811 1179.86 1477.79 1347.94 1531.98C1516.02 1586.17 2157.53 1944.63 2201.81 1807.27C2246.1 1669.92 1686.3 1279.09 1518.22 1224.9C1350.14 1170.71 1527.13 728.891 1210.47 747.456Z" fill="#E3FFF6"/>
</g>
</g>
<defs>
<filter id="filter0_f_134_139" x="0.582031" y="0.362305" width="3306.92" height="2734.02" filterUnits="userSpaceOnUse" color-interpolation-filters="sRGB">
<feFlood flood-opacity="0" result="BackgroundImageFix"/>
<feBlend mode="normal" in="SourceGraphic" in2="BackgroundImageFix" result="shape"/>
<feGaussianBlur stdDeviation="300" result="effect1_foregroundBlur_134_139"/>
</filter>
<filter id="filter1_f_134_139" x="888.858" y="446.888" width="1615.44" height="1691.52" filterUnits="userSpaceOnUse" color-interpolation-filters="sRGB">
<feFlood flood-opacity="0" result="BackgroundImageFix"/>
<feBlend mode="normal" in="SourceGraphic" in2="BackgroundImageFix" result="shape"/>
<feGaussianBlur stdDeviation="150" result="effect1_foregroundBlur_134_139"/>
</filter>
</defs>
</svg>
