<svg width="2929" height="1945" viewBox="0 0 2929 1945" fill="none" xmlns="http://www.w3.org/2000/svg">
<g opacity="0.8">
<g filter="url(#filter0_f_53_957)">
<path d="M2323.44 689.836C2375.37 873.819 2032.86 1131.52 1558.43 1265.42C1083.99 1399.32 657.295 1358.72 605.369 1174.74C553.443 990.752 902.416 910.107 1376.85 776.206C1851.28 642.305 2271.52 505.854 2323.44 689.836Z" fill="#34DBFF"/>
</g>
<g filter="url(#filter1_f_53_957)">
<path d="M1906.85 616.706C1906.85 721.64 1765.08 1128.95 1636.67 1128.95C1508.26 1128.95 984.348 1233.88 984.348 1128.95C984.348 1024.01 1458.94 878.446 1587.35 878.446C1715.75 878.446 1691.85 533.206 1906.85 616.706Z" fill="#E3FFF6"/>
</g>
</g>
<defs>
<filter id="filter0_f_53_957" x="0.24707" y="0.564041" width="2928.4" height="1943.77" filterUnits="userSpaceOnUse" color-interpolation-filters="sRGB">
<feFlood flood-opacity="0" result="BackgroundImageFix"/>
<feBlend mode="normal" in="SourceGraphic" in2="BackgroundImageFix" result="shape"/>
<feGaussianBlur stdDeviation="300" result="effect1_foregroundBlur_53_957"/>
</filter>
<filter id="filter1_f_53_957" x="684.348" y="303.679" width="1522.5" height="1171.9" filterUnits="userSpaceOnUse" color-interpolation-filters="sRGB">
<feFlood flood-opacity="0" result="BackgroundImageFix"/>
<feBlend mode="normal" in="SourceGraphic" in2="BackgroundImageFix" result="shape"/>
<feGaussianBlur stdDeviation="150" result="effect1_foregroundBlur_53_957"/>
</filter>
</defs>
</svg>
