<svg width="3519" height="2502" viewBox="0 0 3519 2502" fill="none" xmlns="http://www.w3.org/2000/svg">
<g opacity="0.8">
<g filter="url(#filter0_f_53_951)">
<path d="M2910.83 1507.7C2832.08 1754.18 2253 1789.34 1617.42 1586.25C981.85 1383.16 530.462 1018.72 609.22 772.248C687.977 525.776 1142.15 695.308 1777.73 898.398C2413.3 1101.49 2989.59 1261.23 2910.83 1507.7Z" fill="#34DBFF"/>
</g>
<g filter="url(#filter1_f_53_951)">
<path d="M2495.14 1114.1C2416.79 1232.56 1952.61 1586.51 1807.66 1490.63C1662.7 1394.75 992.889 1122.01 1071.24 1003.55C1149.59 885.088 1794.06 1075.13 1939.02 1171.01C2083.98 1266.89 2314.78 859.294 2495.14 1114.1Z" fill="#E3FFF6"/>
</g>
</g>
<defs>
<filter id="filter0_f_53_951" x="0.296875" y="49.9243" width="3517.77" height="2268.33" filterUnits="userSpaceOnUse" color-interpolation-filters="sRGB">
<feFlood flood-opacity="0" result="BackgroundImageFix"/>
<feBlend mode="normal" in="SourceGraphic" in2="BackgroundImageFix" result="shape"/>
<feGaussianBlur stdDeviation="300" result="effect1_foregroundBlur_53_951"/>
</filter>
<filter id="filter1_f_53_951" x="764.892" y="665.855" width="2030.25" height="1141.05" filterUnits="userSpaceOnUse" color-interpolation-filters="sRGB">
<feFlood flood-opacity="0" result="BackgroundImageFix"/>
<feBlend mode="normal" in="SourceGraphic" in2="BackgroundImageFix" result="shape"/>
<feGaussianBlur stdDeviation="150" result="effect1_foregroundBlur_53_951"/>
</filter>
</defs>
</svg>
