<svg width="2733" height="2317" viewBox="0 0 2733 2317" fill="none" xmlns="http://www.w3.org/2000/svg">
<g opacity="0.8">
<g filter="url(#filter0_f_53_945)">
<path d="M2107.77 649.59C2213.65 808.763 1966.74 1159.13 1556.28 1432.15C1145.83 1705.17 727.255 1797.46 621.378 1638.29C515.501 1479.12 822.892 1295.28 1233.35 1022.26C1643.81 749.236 2001.9 490.417 2107.77 649.59Z" fill="#34DBFF"/>
</g>
<g filter="url(#filter1_f_53_945)">
<path d="M1688.84 707.821C1721.04 807.692 1711.09 1238.85 1588.88 1278.25C1466.66 1317.65 1000.22 1578.29 968.023 1478.42C935.824 1378.55 1342.85 1094.37 1465.07 1054.97C1587.28 1015.57 1458.59 694.322 1688.84 707.821Z" fill="#E3FFF6"/>
</g>
</g>
<defs>
<filter id="filter0_f_53_945" x="0.330078" y="0.86731" width="2731.96" height="2315.4" filterUnits="userSpaceOnUse" color-interpolation-filters="sRGB">
<feFlood flood-opacity="0" result="BackgroundImageFix"/>
<feBlend mode="normal" in="SourceGraphic" in2="BackgroundImageFix" result="shape"/>
<feGaussianBlur stdDeviation="300" result="effect1_foregroundBlur_53_945"/>
</filter>
<filter id="filter1_f_53_945" x="666.216" y="407.407" width="1338.33" height="1393.65" filterUnits="userSpaceOnUse" color-interpolation-filters="sRGB">
<feFlood flood-opacity="0" result="BackgroundImageFix"/>
<feBlend mode="normal" in="SourceGraphic" in2="BackgroundImageFix" result="shape"/>
<feGaussianBlur stdDeviation="150" result="effect1_foregroundBlur_53_945"/>
</filter>
</defs>
</svg>
