<svg width="3308" height="2735" viewBox="0 0 3308 2735" fill="none" xmlns="http://www.w3.org/2000/svg">
<g opacity="0.8">
<g filter="url(#filter0_f_77_1610)">
<path d="M2673.74 667.371C2819.35 886.285 2479.77 1368.15 1915.26 1743.64C1350.75 2119.13 775.086 2246.06 629.472 2027.15C483.858 1808.24 906.617 1555.4 1471.13 1179.91C2035.63 804.415 2528.12 448.458 2673.74 667.371Z" fill="#34DBFF"/>
</g>
<g filter="url(#filter1_f_77_1610)">
<path d="M2097.57 747.456C2141.85 884.812 2128.17 1477.79 1960.09 1531.98C1792.01 1586.17 1150.5 1944.63 1106.22 1807.27C1061.93 1669.92 1621.73 1279.09 1789.81 1224.9C1957.89 1170.71 1780.9 728.892 2097.57 747.456Z" fill="#E3FFF6"/>
</g>
</g>
<defs>
<filter id="filter0_f_77_1610" x="0.524414" y="0.361877" width="3306.92" height="2734.02" filterUnits="userSpaceOnUse" color-interpolation-filters="sRGB">
<feFlood flood-opacity="0" result="BackgroundImageFix"/>
<feBlend mode="normal" in="SourceGraphic" in2="BackgroundImageFix" result="shape"/>
<feGaussianBlur stdDeviation="300" result="effect1_foregroundBlur_77_1610"/>
</filter>
<filter id="filter1_f_77_1610" x="803.732" y="446.888" width="1615.44" height="1691.52" filterUnits="userSpaceOnUse" color-interpolation-filters="sRGB">
<feFlood flood-opacity="0" result="BackgroundImageFix"/>
<feBlend mode="normal" in="SourceGraphic" in2="BackgroundImageFix" result="shape"/>
<feGaussianBlur stdDeviation="150" result="effect1_foregroundBlur_77_1610"/>
</filter>
</defs>
</svg>
