<svg width="19" height="30" viewBox="0 0 19 30" fill="none" xmlns="http://www.w3.org/2000/svg">
<path fill-rule="evenodd" clip-rule="evenodd" d="M8.67195 10.5454V3.49585L2.68294 13.1656L8.67195 10.5454ZM9.31778 0L18.3443 15.0443L9.31778 20.1885L0 15.0443L9.31778 0ZM2.20334 14.7853L8.67195 18.3565V11.9553L2.20334 14.7853ZM9.96362 11.9681V18.3337L16.1952 14.7824L9.96362 11.9681ZM15.6949 13.1391L9.96362 10.5508V3.58695L15.6949 13.1391ZM8.67195 23.4425L4.68526 21.0754L8.67195 26.5986V23.4425ZM0 16.7914L9.31778 22.3238L18.3443 16.7914L9.31778 29.7003L0 16.7914ZM9.96362 26.5227V23.4429L13.7323 21.1331L9.96362 26.5227Z" fill="#D6FF7E"/>
</svg>
