<svg width="115" height="28" viewBox="0 0 115 28" fill="none" xmlns="http://www.w3.org/2000/svg">
<path d="M0 0.547363H16.848V5.08337H10.8V21.2114H16.848V25.7474H0V21.2114H6.048V5.08337H0V0.547363Z" fill="white"/>
<path d="M25.643 0.547363H33.995L35.435 19.4834V23.1554H36.299V19.4834L37.739 0.547363H46.091V25.7474H41.771V8.89936L42.203 3.13936H41.339L39.467 25.7474H32.339L30.395 3.13936H29.531L29.963 8.89936V25.7474H25.643V0.547363Z" fill="white"/>
<path d="M53.0859 0.547363H61.4379L62.8779 19.4834V23.1554H63.7419V19.4834L65.1819 0.547363H73.5339V25.7474H69.2139V8.89936L69.6459 3.13936H68.7819L66.9099 25.7474H59.7819L57.8379 3.13936H56.9739L57.4059 8.89936V25.7474H53.0859V0.547363Z" fill="white"/>
<path d="M95.0369 20.3474H86.4689L85.2449 25.7474H80.2769L86.2889 0.547363H95.2169L101.229 25.7474H96.2609L95.0369 20.3474ZM87.4769 15.8114H93.9929L91.0769 2.92337H90.4289L87.4769 15.8114Z" fill="white"/>
<path d="M114.408 24.2474C114.408 26.1804 112.841 27.7474 110.908 27.7474C108.975 27.7474 107.408 26.1804 107.408 24.2474C107.408 22.3144 108.975 20.7474 110.908 20.7474C112.841 20.7474 114.408 22.3144 114.408 24.2474Z" fill="#D6FF7E"/>
</svg>
