<svg width="94" height="57" viewBox="0 0 94 57" fill="none" xmlns="http://www.w3.org/2000/svg">
<path d="M28.632 1C26.9398 4.06157 25.7635 7.29916 24.4854 10.5569C21.9126 17.1146 19.1843 23.5896 16.4457 30.0779C12.8849 38.5144 9.5479 46.964 4.0312 54.3456C3.80152 54.6529 2.42415 56.9344 1.82473 55.5672C1.46309 54.7424 1.51017 53.6902 1.45699 52.8185C1.29289 50.1289 1.08993 47.446 1.03852 44.7505C0.967325 41.0174 0.831951 37.074 2.35733 33.5775C4.23919 29.2637 7.63502 25.5129 10.9042 22.2135C13.0717 20.026 15.3893 17.8883 17.866 16.0543C17.9163 16.0171 19.9749 14.1707 19.9203 15.2399C19.847 16.675 19.3345 18.0226 18.9439 19.3884C18.3269 21.5455 18.1071 23.751 17.9167 25.9803C17.7472 27.9655 17.6758 29.9441 17.6758 31.9359C17.6758 33.4598 19.6163 31.6787 20.0471 31.3505C24.5083 27.9524 28.5391 23.7799 32.1573 19.503C33.6413 17.7487 34.9372 15.8644 35.746 13.7001C36.0037 13.0104 36.1838 10.6573 34.7062 11.6768C33.2582 12.6757 32.313 14.7308 31.5486 16.2325C30.3779 18.5325 29.5033 20.9658 28.8476 23.4606C27.998 26.6933 27.3644 30.0026 26.8821 33.3102C26.7676 34.0953 26.4045 35.5275 27.2371 36.1098C28.6226 37.0788 31.4869 35.3524 32.5758 34.7864C36.6397 32.674 39.9321 29.7475 42.7078 26.1075C43.1376 25.5439 48.2628 19.1115 46.7403 17.8614C44.8996 16.3501 41.0896 23.4783 40.6915 24.3641C39.9117 26.0993 37.1525 35.0737 41.6426 34.2901C43.7266 33.9264 45.811 32.8035 47.6026 31.745C51.7998 29.265 55.7264 26.0504 58.8378 22.2772C59.5601 21.4012 63.763 14.54 59.624 14.7436C55.3721 14.9528 54.2774 22.348 53.7655 25.4076C53.718 25.6914 53.0736 28.57 53.7655 28.8435C55.3132 29.4554 58.8892 26.4862 59.9284 25.764C61.5737 24.6205 63.593 23.2287 64.4427 21.31C64.4873 21.2095 64.9538 19.6295 64.3159 19.7575C63.4124 19.9388 63.5646 22.2452 63.6058 22.7862C63.7481 24.6531 64.72 25.6435 66.5731 25.993C74.7444 27.5344 83.8384 20.8058 88.3588 14.6164C89.4646 13.1023 93.3334 7.67864 90.5653 5.83572C87.7499 3.96137 83.6189 4.99114 81.1054 6.75196C75.2807 10.8324 71.1104 17.1652 67.1564 22.9389C63.3077 28.559 59.5876 34.3101 55.135 39.4821C53.0671 41.8842 49.594 46.2071 46.9178 42.3836C44.8559 39.4376 42.9786 35.5389 43.0628 31.8468C43.1526 27.9154 46.5781 25.8133 49.9359 24.7459C53.8204 23.5111 57.5844 23.4791 60.6892 26.3748C63.5087 29.0044 65.7705 32.413 68.1202 35.4608C68.7594 36.2899 69.947 38.5856 71.0875 38.9222C72.2017 39.2511 74.0457 36.5193 74.4606 36.0208C74.7191 35.7102 77.8831 31.0287 78.4931 31.4141C79.1522 31.8306 79.497 33.7527 79.8373 34.4428C81.6937 38.2075 91.1892 26.4479 93 24.1351" stroke="white" stroke-linecap="round"/>
</svg>
