<svg width="10" height="16" viewBox="0 0 10 16" fill="none" xmlns="http://www.w3.org/2000/svg">
<path d="M4.5073 0.416687H5.71168V1.82125C6.59976 1.90528 7.32968 2.11537 7.90146 2.4515C8.47324 2.77563 8.90511 3.17779 9.19708 3.65798C9.48905 4.13818 9.65328 4.64838 9.68978 5.1886H8.28467C8.22384 4.67239 7.98662 4.22221 7.57299 3.83806C7.15937 3.4419 6.53893 3.1958 5.71168 3.09976V7.25942C6.24696 7.37947 6.76399 7.52353 7.26277 7.6916C7.77372 7.85967 8.23601 8.06375 8.64964 8.30384C9.06326 8.54394 9.39173 8.85006 9.63504 9.22221C9.87835 9.58235 10 10.0265 10 10.5547C10 11.5992 9.61679 12.4155 8.85036 13.0037C8.09611 13.592 7.04988 13.9161 5.71168 13.9761V15.4167H4.5073V13.9761C3.4854 13.9041 2.65207 13.706 2.0073 13.3819C1.36253 13.0457 0.881995 12.6136 0.565693 12.0854C0.249392 11.5451 0.0608272 10.9449 0 10.2846H1.42336C1.45985 11.0409 1.77007 11.6112 2.35401 11.9953C2.93796 12.3675 3.65572 12.5956 4.5073 12.6796V8.28584C3.98419 8.15378 3.47324 8.00973 2.97445 7.85366C2.48783 7.6976 2.0438 7.49952 1.64234 7.25942C1.25304 7.01933 0.942822 6.72521 0.711679 6.37707C0.480535 6.02893 0.364963 5.59676 0.364963 5.08055C0.364963 4.15618 0.705596 3.39388 1.38686 2.79364C2.08029 2.18139 3.12044 1.84526 4.5073 1.78523V0.416687ZM1.69708 5.06255C1.69708 5.42269 1.82482 5.72281 2.08029 5.96291C2.33577 6.191 2.6764 6.38307 3.10219 6.53914C3.52798 6.6952 3.99635 6.83926 4.5073 6.97131V3.06375C3.71655 3.09976 3.12044 3.23181 2.71898 3.4599C2.31752 3.688 2.0438 3.9521 1.89781 4.25222C1.76399 4.54034 1.69708 4.81045 1.69708 5.06255ZM8.63139 10.6088C8.63139 10.2246 8.49757 9.90648 8.22993 9.65438C7.96229 9.40228 7.60949 9.1922 7.17153 9.02413C6.73358 8.85606 6.24696 8.706 5.71168 8.57395V12.6976C6.61192 12.6616 7.3236 12.4695 7.84671 12.1214C8.36983 11.7732 8.63139 11.269 8.63139 10.6088Z" fill="#D6FF7E"/>
</svg>
