<svg width="50" height="51" viewBox="0 0 50 51" fill="none" xmlns="http://www.w3.org/2000/svg">
<circle cx="25" cy="25.0474" r="25" fill="white" fill-opacity="0.12"/>
<g clip-path="url(#clip0_466_670)">
<path d="M25 14.0474C21.8014 14.0474 19.1992 16.6496 19.1992 19.8481C19.1992 23.0467 21.8014 25.6489 25 25.6489C28.1986 25.6489 30.8008 23.0467 30.8008 19.8481C30.8008 16.6496 28.1986 14.0474 25 14.0474Z" fill="white" fill-opacity="0.29"/>
<path d="M32.2173 29.4386C30.6292 27.826 28.5238 26.938 26.2891 26.938H23.7109C21.4762 26.938 19.3708 27.826 17.7827 29.4386C16.2024 31.0432 15.332 33.1613 15.332 35.4028C15.332 35.7588 15.6206 36.0474 15.9766 36.0474H34.0234C34.3794 36.0474 34.668 35.7588 34.668 35.4028C34.668 33.1613 33.7976 31.0432 32.2173 29.4386Z" fill="white" fill-opacity="0.29"/>
</g>
<defs>
<clipPath id="clip0_466_670">
<rect width="22" height="22" fill="white" transform="translate(14 14.0474)"/>
</clipPath>
</defs>
</svg>
