<svg width="30" height="24" viewBox="0 0 30 24" fill="none" xmlns="http://www.w3.org/2000/svg">
<path fill-rule="evenodd" clip-rule="evenodd" d="M1 0.547363C0.447715 0.547363 0 0.995078 0 1.54736V22.5474C0 23.0996 0.447716 23.5474 1 23.5474H29C29.5523 23.5474 30 23.0996 30 22.5474V1.54736C30 0.995079 29.5523 0.547363 29 0.547363H1ZM17 13.5474C17 16.8611 14.3137 19.5474 11 19.5474C7.68629 19.5474 5 16.8611 5 13.5474C5 10.2337 7.68629 7.54736 11 7.54736C14.3137 7.54736 17 10.2337 17 13.5474ZM18 13.5474C18 17.4134 14.866 20.5474 11 20.5474C7.13401 20.5474 4 17.4134 4 13.5474C4 9.68137 7.13401 6.54736 11 6.54736C14.866 6.54736 18 9.68137 18 13.5474ZM18 4.54736H27V6.54736H18V4.54736ZM9 13.5474C9.55229 13.5474 10 13.0996 10 12.5474C10 11.9951 9.55229 11.5474 9 11.5474C8.44771 11.5474 8 11.9951 8 12.5474C8 13.0996 8.44771 13.5474 9 13.5474Z" fill="#D6FF7E"/>
</svg>
