<svg width="23" height="18" viewBox="0 0 23 18" fill="none" xmlns="http://www.w3.org/2000/svg">
<path d="M19.4704 1.86304C18.0041 1.21142 16.4325 0.729782 14.789 0.455911C14.7744 0.453142 14.7592 0.454927 14.7457 0.461018C14.7321 0.467109 14.7208 0.477205 14.7133 0.489909C14.5121 0.838386 14.2878 1.29263 14.1307 1.6515C12.3876 1.39485 10.6155 1.39485 8.87245 1.6515C8.6974 1.25378 8.50001 0.865985 8.28118 0.489909C8.27376 0.477049 8.26254 0.466724 8.24901 0.460312C8.23549 0.4539 8.2203 0.451706 8.20547 0.454022C6.56294 0.727893 4.99132 1.20953 3.52415 1.8621C3.51153 1.86731 3.50083 1.87621 3.49348 1.88759C0.511238 6.20814 -0.306197 10.422 0.0953328 14.5829C0.0964501 14.5931 0.0996601 14.603 0.104767 14.6119C0.109874 14.6208 0.116772 14.6286 0.12504 14.6349C1.8657 15.8837 3.80717 16.8351 5.86817 17.4491C5.88253 17.4535 5.8979 17.4535 5.91226 17.4491C5.92662 17.4447 5.93931 17.4362 5.94866 17.4246C6.39216 16.8401 6.78517 16.22 7.12355 15.5708C7.12824 15.5619 7.13095 15.5521 7.13148 15.5421C7.13202 15.5321 7.13036 15.5221 7.12664 15.5128C7.12291 15.5035 7.1172 15.4951 7.10989 15.4881C7.10258 15.4812 7.09383 15.4759 7.08426 15.4725C6.46519 15.2428 5.86537 14.9656 5.29031 14.6434C5.27997 14.6376 5.27127 14.6293 5.26497 14.6194C5.25867 14.6094 5.25497 14.5981 5.25421 14.5864C5.25345 14.5747 5.25565 14.563 5.26061 14.5523C5.26557 14.5417 5.27314 14.5324 5.28264 14.5253C5.40339 14.4375 5.52413 14.3459 5.63913 14.2543C5.64948 14.246 5.66195 14.2408 5.67515 14.2391C5.68834 14.2375 5.70175 14.2394 5.71388 14.2448C9.47714 15.9107 13.5528 15.9107 17.272 14.2448C17.2842 14.2391 17.2977 14.2369 17.3111 14.2384C17.3245 14.2399 17.3372 14.2451 17.3477 14.2533C17.4627 14.3459 17.5825 14.4375 17.7042 14.5253C17.7138 14.5322 17.7215 14.5414 17.7266 14.552C17.7317 14.5625 17.7341 14.5742 17.7335 14.5859C17.733 14.5976 17.7295 14.6089 17.7233 14.619C17.7172 14.629 17.7087 14.6374 17.6984 14.6434C17.1254 14.9682 16.5293 15.2431 15.9035 15.4716C15.8939 15.475 15.8852 15.4804 15.8779 15.4875C15.8705 15.4945 15.8648 15.503 15.8611 15.5124C15.8574 15.5218 15.8558 15.5318 15.8563 15.5419C15.8568 15.552 15.8595 15.5618 15.8643 15.5708C16.2092 16.2195 16.6041 16.8372 17.0382 17.4236C17.0472 17.4357 17.0598 17.4447 17.0742 17.4494C17.0886 17.4541 17.1041 17.4544 17.1187 17.4501C19.1832 16.8378 21.1278 15.886 22.8704 14.6349C22.8789 14.629 22.8861 14.6214 22.8913 14.6126C22.8966 14.6038 22.9 14.594 22.9011 14.5839C23.3802 9.77319 22.098 5.59335 19.5001 1.88948C19.4937 1.87745 19.4832 1.86806 19.4704 1.86304ZM7.68607 12.0491C6.55335 12.0491 5.61901 11.0396 5.61901 9.80152C5.61901 8.56249 6.53515 7.55389 7.68607 7.55389C8.84562 7.55389 9.77134 8.57099 9.75314 9.80152C9.75314 11.0405 8.837 12.0491 7.68607 12.0491ZM15.3286 12.0491C14.1949 12.0491 13.2615 11.0396 13.2615 9.80152C13.2615 8.56249 14.1767 7.55389 15.3286 7.55389C16.4881 7.55389 17.4138 8.57099 17.3956 9.80152C17.3956 11.0405 16.4891 12.0491 15.3286 12.0491Z" fill="white"/>
</svg>
