<svg width="12" height="18" viewBox="0 0 12 18" fill="none" xmlns="http://www.w3.org/2000/svg">
<path d="M5.88336 0.6875H7.20336V2.2475C8.17669 2.34083 8.97669 2.57417 9.60336 2.9475C10.23 3.3075 10.7034 3.75417 11.0234 4.2875C11.3434 4.82083 11.5234 5.3875 11.5634 5.9875H10.0234C9.95669 5.41417 9.69669 4.91417 9.24336 4.4875C8.79003 4.0475 8.11003 3.77417 7.20336 3.6675V8.2875C7.79003 8.42083 8.35669 8.58083 8.90336 8.7675C9.46336 8.95417 9.97003 9.18083 10.4234 9.4475C10.8767 9.71417 11.2367 10.0542 11.5034 10.4675C11.77 10.8675 11.9034 11.3608 11.9034 11.9475C11.9034 13.1075 11.4834 14.0142 10.6434 14.6675C9.81669 15.3208 8.67003 15.6808 7.20336 15.7475V17.3475H5.88336V15.7475C4.76336 15.6675 3.85003 15.4475 3.14336 15.0875C2.43669 14.7142 1.91003 14.2342 1.56336 13.6475C1.21669 13.0475 1.01003 12.3808 0.943359 11.6475H2.50336C2.54336 12.4875 2.88336 13.1208 3.52336 13.5475C4.16336 13.9608 4.95003 14.2142 5.88336 14.3075V9.4275C5.31003 9.28083 4.75003 9.12083 4.20336 8.9475C3.67003 8.77417 3.18336 8.55417 2.74336 8.2875C2.31669 8.02083 1.97669 7.69417 1.72336 7.3075C1.47003 6.92083 1.34336 6.44083 1.34336 5.8675C1.34336 4.84083 1.71669 3.99417 2.46336 3.3275C3.22336 2.6475 4.36336 2.27417 5.88336 2.2075V0.6875ZM2.80336 5.8475C2.80336 6.2475 2.94336 6.58083 3.22336 6.8475C3.50336 7.10083 3.87669 7.31417 4.34336 7.4875C4.81003 7.66083 5.32336 7.82083 5.88336 7.9675V3.6275C5.01669 3.6675 4.36336 3.81417 3.92336 4.0675C3.48336 4.32083 3.18336 4.61417 3.02336 4.9475C2.87669 5.2675 2.80336 5.5675 2.80336 5.8475ZM10.4034 12.0075C10.4034 11.5808 10.2567 11.2275 9.96336 10.9475C9.67003 10.6675 9.28336 10.4342 8.80336 10.2475C8.32336 10.0608 7.79003 9.89417 7.20336 9.7475V14.3275C8.19003 14.2875 8.97003 14.0742 9.54336 13.6875C10.1167 13.3008 10.4034 12.7408 10.4034 12.0075Z" fill="white"/>
</svg>
