<svg width="15" height="24" viewBox="0 0 15 24" fill="none" xmlns="http://www.w3.org/2000/svg">
<path fill-rule="evenodd" clip-rule="evenodd" d="M7.41689 8.94005V3.48234L2.78024 10.9686L7.41689 8.94005ZM7.91689 0.775879L14.9052 12.4231L7.91689 16.4057L0.703125 12.4231L7.91689 0.775879ZM2.40893 12.2225L7.41689 14.9873V10.0316L2.40893 12.2225ZM8.41689 10.0415V14.9697L13.2414 12.2203L8.41689 10.0415ZM12.854 10.9481L8.41689 8.94424V3.55287L12.854 10.9481ZM7.41689 18.9249L4.33042 17.0923L7.41689 21.3684V18.9249ZM0.703125 13.7757L7.91689 18.0588L14.9052 13.7757L7.91689 23.7697L0.703125 13.7757ZM8.41689 21.3096V18.9252L11.3346 17.137L8.41689 21.3096Z" fill="white"/>
</svg>
