<svg width="16" height="17" viewBox="0 0 16 17" fill="none" xmlns="http://www.w3.org/2000/svg">
<g clip-path="url(#clip0_71_628)">
<path d="M11.6689 0.453125H4.33105C1.94287 0.453125 0 2.39599 0 4.78417V12.1222C0 14.5102 1.94287 16.4531 4.33105 16.4531H11.669C14.0571 16.4531 16 14.5102 16 12.1222V4.78417C16 2.39599 14.0571 0.453125 11.6689 0.453125ZM7.99998 12.828C5.58764 12.828 3.62512 10.8655 3.62512 8.45311C3.62512 6.04076 5.58764 4.07824 7.99998 4.07824C10.4123 4.07824 12.3749 6.04076 12.3749 8.45311C12.3749 10.8655 10.4123 12.828 7.99998 12.828ZM12.4795 5.10998C11.7666 5.10998 11.1867 4.53014 11.1867 3.81725C11.1867 3.10436 11.7666 2.52441 12.4795 2.52441C13.1924 2.52441 13.7723 3.10436 13.7723 3.81725C13.7723 4.53014 13.1924 5.10998 12.4795 5.10998Z" fill="white"/>
<path d="M8.00036 5.0166C6.10534 5.0166 4.56348 6.55835 4.56348 8.45349C4.56348 10.3485 6.10534 11.8904 8.00036 11.8904C9.8955 11.8904 11.4372 10.3485 11.4372 8.45349C11.4372 6.55835 9.8955 5.0166 8.00036 5.0166Z" fill="white"/>
<path d="M12.4797 3.46289C12.2842 3.46289 12.125 3.62207 12.125 3.81763C12.125 4.01318 12.2842 4.17236 12.4797 4.17236C12.6754 4.17236 12.8346 4.0133 12.8346 3.81763C12.8346 3.62195 12.6754 3.46289 12.4797 3.46289Z" fill="white"/>
</g>
<defs>
<clipPath id="clip0_71_628">
<rect width="16" height="16" fill="white" transform="translate(0 0.453125)"/>
</clipPath>
</defs>
</svg>
