<svg width="23" height="23" viewBox="0 0 23 23" fill="none" xmlns="http://www.w3.org/2000/svg">
<path fill-rule="evenodd" clip-rule="evenodd" d="M22.5 11.4364C22.5 17.6464 17.46 22.6864 11.25 22.6864C5.04 22.6864 0 17.6464 0 11.4364C0 5.2264 5.04 0.186401 11.25 0.186401C17.46 0.186401 22.5 5.2264 22.5 11.4364ZM5.55718 11.8189L5.60218 11.7514L8.52718 7.18392C8.57218 7.11642 8.66218 7.11642 8.70718 7.20642C9.20218 8.30892 9.60718 9.65892 9.42718 10.5139C9.33718 10.8739 9.11218 11.3464 8.84218 11.7739C8.81968 11.8414 8.77468 11.9089 8.72968 11.9539L8.72967 11.9539C8.70718 11.9764 8.68468 11.9989 8.63968 11.9989H5.62468C5.55718 11.9764 5.51218 11.8864 5.55718 11.8189ZM18.5856 13.3939V12.6739C18.5856 12.6064 18.5406 12.5614 18.4056 12.6289L14.9856 13.6189C14.9631 13.6189 14.9631 13.6189 14.9406 13.6414C14.6517 13.9474 14.4012 14.1763 14.2669 14.2991C14.2234 14.3388 14.1921 14.3674 14.1756 14.3839C13.9731 14.5639 13.7031 14.6539 13.4331 14.6539H12.1956V13.3939H13.1856C13.2081 13.3939 13.2306 13.3939 13.2531 13.3714L13.3881 13.2589C13.4556 13.2139 13.5231 13.1464 13.5906 13.0789L13.5906 13.0789C13.6368 13.0482 13.6724 13.0069 13.7047 12.9695C13.7196 12.9522 13.7339 12.9357 13.7481 12.9214C13.7943 12.8907 13.8299 12.8494 13.8622 12.812C13.8771 12.7947 13.8914 12.7782 13.9056 12.7639C13.9394 12.7189 13.9788 12.6739 14.0181 12.6289C14.0575 12.5839 14.0969 12.5389 14.1306 12.4939C14.1981 12.4264 14.2431 12.3589 14.2881 12.2914L14.2881 12.2914C14.3106 12.2577 14.3388 12.2239 14.3669 12.1902C14.395 12.1564 14.4231 12.1227 14.4456 12.0889C14.4614 12.0415 14.4883 12.0053 14.5184 11.9645C14.5313 11.9472 14.5447 11.929 14.5581 11.9089C14.6031 11.8414 14.6481 11.7739 14.6706 11.7289L14.6707 11.7288C14.7607 11.5714 14.8506 11.4139 14.9181 11.2564C14.9525 11.1877 14.9738 11.1189 14.9919 11.0602C14.9975 11.042 15.0028 11.0248 15.0081 11.0089C15.0194 10.9639 15.0306 10.9245 15.0419 10.8852C15.0531 10.8458 15.0644 10.8064 15.0756 10.7614C15.0768 10.7512 15.0779 10.7411 15.079 10.731C15.1003 10.5408 15.1195 10.3687 15.0981 10.1764C15.0981 10.1089 15.0981 10.0414 15.0756 9.9964C15.0756 9.9739 15.0756 9.9289 15.0531 9.8839C15.0306 9.6814 14.9631 9.5014 14.8731 9.3214C14.8619 9.28765 14.845 9.2539 14.8281 9.22015C14.8113 9.1864 14.7944 9.15265 14.7831 9.1189C14.7381 9.0514 14.6988 8.9839 14.6594 8.9164C14.62 8.8489 14.5806 8.7814 14.5356 8.7139C14.5215 8.67153 14.4985 8.63803 14.4778 8.60782C14.4655 8.58991 14.454 8.57316 14.4456 8.5564C14.4119 8.5114 14.3725 8.46077 14.3331 8.41014C14.2937 8.35952 14.2544 8.3089 14.2206 8.2639C14.1869 8.23015 14.1588 8.19078 14.1306 8.1514C14.1025 8.11203 14.0744 8.07265 14.0406 8.0389C14.0069 8.00515 13.9788 7.9714 13.9506 7.93765C13.9225 7.9039 13.8944 7.87015 13.8606 7.8364C13.6356 7.5889 13.4106 7.3639 13.2081 7.1839C13.1936 7.15484 13.1697 7.13517 13.1425 7.11275C13.1275 7.10046 13.1116 7.08734 13.0956 7.0714C12.9381 6.9364 12.7806 6.8014 12.6681 6.7114C12.6006 6.66641 12.5556 6.62141 12.5106 6.57642L12.5106 6.5764C12.4431 6.5314 12.3981 6.4864 12.3756 6.4639C12.3756 6.4414 12.3531 6.4414 12.3531 6.4414L12.2181 6.3964V5.3164C12.2181 5.1364 12.1506 4.9789 12.0381 4.8664C11.9256 4.7539 11.7681 4.6864 11.5881 4.6864C11.2506 4.6864 10.9581 4.9789 10.9581 5.3389V6.0814L10.8906 6.0589L10.7106 6.0139L10.5531 5.9689L9.31563 5.6314C9.27063 5.6089 9.22563 5.6764 9.24813 5.7214L9.45063 6.0814L9.51813 6.2164C9.52938 6.25015 9.54625 6.2839 9.56313 6.31765C9.58 6.3514 9.59688 6.38515 9.60813 6.4189C9.61938 6.45265 9.63625 6.48078 9.65313 6.5089C9.67 6.53703 9.68688 6.56515 9.69813 6.5989C9.76563 6.7339 9.83313 6.8914 9.90063 7.0489L10.0356 7.3864C10.1481 7.6564 10.2606 7.9714 10.3506 8.2864C10.3883 8.3618 10.4102 8.45298 10.4296 8.53349C10.4333 8.54909 10.437 8.56429 10.4406 8.5789L10.4631 8.6239C10.5081 8.7814 10.5306 8.9164 10.5531 9.0739C10.5756 9.1639 10.5981 9.2764 10.5981 9.3664C10.5981 9.42265 10.6038 9.4789 10.6094 9.53515C10.615 9.5914 10.6206 9.64765 10.6206 9.7039C10.6431 9.8164 10.6431 9.9289 10.6431 10.0189C10.6431 10.2889 10.6206 10.5364 10.5756 10.7614L10.5081 10.9639C10.4998 10.989 10.4883 11.0173 10.476 11.0475C10.4552 11.0984 10.4323 11.1549 10.4181 11.2114C10.3956 11.2789 10.3731 11.3239 10.3506 11.3689C10.2381 11.6389 10.1031 11.9314 9.94563 12.1789C9.72063 12.5614 9.51813 12.8764 9.36063 13.1014C9.33813 13.1464 9.31563 13.1689 9.29313 13.1914C9.24813 13.2589 9.29313 13.3489 9.38313 13.3489H10.9806V14.6089H9.36063C8.93313 14.6089 8.52813 14.3839 8.32563 13.9789C8.23563 13.7764 8.19063 13.5514 8.21313 13.3489C8.21313 13.3039 8.16813 13.2364 8.10063 13.2364H4.79313C4.74813 13.2364 4.70312 13.2814 4.70312 13.3264V13.3939C4.70312 15.4864 6.39062 17.1739 8.46063 17.1739H14.3331C15.4181 17.1739 16.0403 16.1803 16.655 15.1988C16.8306 14.9184 17.0056 14.6389 17.1906 14.3839C17.5056 13.9339 18.2931 13.5739 18.5181 13.4839C18.5631 13.4614 18.5856 13.4389 18.5856 13.3939Z" fill="#D6FF7E"/>
</svg>
