<svg width="32" height="33" viewBox="0 0 32 33" fill="none" xmlns="http://www.w3.org/2000/svg">
<path d="M30.1067 8.04228L24.8889 2.79784C24.5441 2.45479 24.0775 2.26221 23.5912 2.26221C23.1048 2.26221 22.6382 2.45479 22.2934 2.79784L3.79561 21.2689L2.10672 28.5578C2.04846 28.8243 2.05045 29.1004 2.11256 29.366C2.17467 29.6315 2.29532 29.8799 2.46571 30.0929C2.63609 30.3058 2.8519 30.4781 3.09736 30.597C3.34283 30.7159 3.61176 30.7784 3.88449 30.7801C4.01158 30.7929 4.13963 30.7929 4.26672 30.7801L11.6356 29.0912L30.1067 10.6378C30.4498 10.293 30.6423 9.82645 30.6423 9.34006C30.6423 8.85368 30.4498 8.38708 30.1067 8.04228ZM10.7467 27.4912L3.84005 28.9401L5.41338 22.1667L19.2534 8.38006L24.5867 13.7134L10.7467 27.4912ZM25.7778 12.4245L20.4445 7.09117L23.5378 4.01562L28.7823 9.34895L25.7778 12.4245Z" fill="#D6FF7E"/>
</svg>
