<svg width="74" height="120" viewBox="0 0 74 120" fill="none" xmlns="http://www.w3.org/2000/svg">
<g clip-path="url(#clip0_170_3521)">
<mask id="mask0_170_3521" style="mask-type:alpha" maskUnits="userSpaceOnUse" x="-43" y="-9" width="161" height="167">
<g clip-path="url(#clip1_170_3521)">
<path d="M72.744 91.8463C72.732 89.1554 71.2301 86.554 68.7388 84.9091L49.8548 74.2295L37.4432 66.7502L18.726 56.3596C16.4017 55.0038 14.8997 52.4023 14.7209 49.4224L15.0602 32.6543C15.0482 29.9635 16.5262 27.1832 19.1276 25.6812L33.5801 17.3371C35.8925 16.002 38.8724 15.8232 41.6527 17.3011L56.0549 25.5582C58.3793 26.914 59.8812 29.5154 60.0601 32.4954L59.7207 49.2634C59.7327 51.9543 58.2547 54.7346 55.6533 56.2365L46.1147 61.7437L58.8153 69.0561L68.643 63.3821C70.9554 62.0471 72.6002 59.5558 72.7104 56.409L72.9451 25.4416C72.9331 22.7507 71.4312 20.1493 68.9399 18.5044L41.3812 2.81273C38.8899 1.16787 35.91 1.34673 33.5976 2.68179L6.42701 18.3688C4.11461 19.7038 2.46975 22.1951 2.35956 25.3419L2.29174 56.5983C2.30372 59.2892 3.80566 61.8907 6.29692 63.5355L24.725 74.093L37.4257 81.4054L55.8538 91.9629C58.1781 93.3187 59.6801 95.9201 59.859 98.9001L59.8087 115.501C59.8207 118.192 58.3427 120.972 55.7412 122.474L41.2888 130.819C38.9764 132.154 35.9965 132.332 33.2162 130.854L18.9809 122.886C16.6565 121.531 15.1545 118.929 14.9757 115.949L15.026 99.3481C15.014 96.6572 16.492 93.8769 19.0934 92.375L28.343 87.0347L15.6423 79.7223L6.10373 85.2294C3.79133 86.5645 2.14647 89.0557 2.03628 92.2025L1.96847 123.459C1.98045 126.15 3.4824 128.751 5.97365 130.396L33.0764 145.966C35.4008 147.321 38.5476 147.432 41.1491 145.93L68.6087 130.076C70.9211 128.741 72.566 126.25 72.6762 123.103L72.744 91.8463Z" fill="#8247E5"/>
</g>
</mask>
<g mask="url(#mask0_170_3521)">
<g filter="url(#filter0_b_170_3521)">
<rect x="2" y="2" width="71" height="119" rx="2" fill="white" fill-opacity="0.2"/>
</g>
</g>
</g>
<defs>
<filter id="filter0_b_170_3521" x="-48" y="-48" width="171" height="219" filterUnits="userSpaceOnUse" color-interpolation-filters="sRGB">
<feFlood flood-opacity="0" result="BackgroundImageFix"/>
<feGaussianBlur in="BackgroundImage" stdDeviation="25"/>
<feComposite in2="SourceAlpha" operator="in" result="effect1_backgroundBlur_170_3521"/>
<feBlend mode="normal" in="SourceGraphic" in2="effect1_backgroundBlur_170_3521" result="shape"/>
</filter>
<clipPath id="clip0_170_3521">
<rect width="74" height="120" fill="white"/>
</clipPath>
<clipPath id="clip1_170_3521">
<rect width="128.166" height="111.811" fill="white" transform="translate(53.8311 -9) rotate(60)"/>
</clipPath>
</defs>
</svg>
