<svg width="74" height="120" viewBox="0 0 74 120" fill="none" xmlns="http://www.w3.org/2000/svg">
<g clip-path="url(#clip0_170_3483)">
<mask id="mask0_170_3483" style="mask-type:alpha" maskUnits="userSpaceOnUse" x="-43" y="-9" width="161" height="167">
<g clip-path="url(#clip1_170_3483)">
<path d="M27.3419 88.0353L18.8434 92.942C16.0842 94.535 14.5139 97.4821 14.526 100.348C14.526 100.349 14.526 100.35 14.526 100.35L14.4757 116.948L14.4756 116.964L14.4766 116.979C14.6642 120.105 16.2425 122.868 18.7289 124.318L18.7289 124.318L18.7366 124.323L32.9719 132.291L32.9719 132.291L32.9815 132.296C35.9153 133.856 39.0784 133.672 41.5388 132.252L55.9912 123.907C58.7502 122.314 60.3206 119.368 60.3087 116.501C60.3087 116.501 60.3087 116.5 60.3087 116.499L60.359 99.9016L60.359 99.8858L60.3581 99.8701C60.1705 96.7448 58.5921 93.9813 56.1057 92.531L56.1023 92.529L37.6751 81.9721L37.6742 81.9716L24.9745 74.6597L24.9736 74.6591L6.55936 64.1096C4.19823 62.5451 2.80365 60.0962 2.79175 57.5982C2.79174 57.5975 2.79174 57.5968 2.79173 57.5961L2.85955 26.3513C2.96616 23.3821 4.51459 21.0502 6.67701 19.8018L33.8476 4.11481C36.02 2.86057 38.7944 2.70392 41.1057 4.22999L41.1195 4.23907L41.1338 4.24723L68.678 19.9306C71.0386 21.495 72.4329 23.9434 72.4451 26.4409C72.4451 26.4419 72.4451 26.4428 72.4451 26.4438L72.2105 57.3982C72.1043 60.368 70.5557 62.7004 68.393 63.9491L58.815 69.479L47.1157 62.7431L55.9033 57.6696C58.6611 56.0774 60.2312 53.1324 60.2208 50.2674L60.56 33.5055L60.5604 33.4854L60.5592 33.4654C60.3716 30.3401 58.7932 27.5766 56.3068 26.1263L56.3036 26.1244L41.9014 17.8674L41.8945 17.8634L41.8874 17.8596C38.9536 16.3 35.7905 16.4835 33.3301 17.9041L18.8776 26.2482C16.1199 27.8404 14.5497 30.7853 14.5602 33.6502L14.221 50.4123L14.2206 50.4323L14.2218 50.4523C14.4093 53.5777 15.9877 56.3411 18.4741 57.7915L18.4741 57.7916L18.4834 57.7967L37.1927 68.183L49.5967 75.6577L49.5966 75.6579L49.6086 75.6647L68.4775 86.3358C70.8381 87.9004 72.2323 90.3492 72.244 92.8469C72.244 92.8474 72.244 92.848 72.244 92.8485L72.1762 124.093C72.0696 127.063 70.5212 129.394 68.3587 130.643L40.8991 146.497C38.4559 147.907 35.5007 147.801 33.3284 146.534L33.3255 146.532L6.23633 130.97C3.87507 129.406 2.48039 126.957 2.46848 124.459C2.46848 124.458 2.46847 124.457 2.46847 124.457L2.53627 93.2118C2.64295 90.2427 4.19135 87.9109 6.35373 86.6624L15.6427 81.2994L27.3419 88.0353Z" stroke="black"/>
</g>
</mask>
<g mask="url(#mask0_170_3483)">
<g filter="url(#filter0_b_170_3483)">
<rect x="2" y="2" width="71" height="119" rx="2" fill="#D6FF7E"/>
</g>
</g>
</g>
<defs>
<filter id="filter0_b_170_3483" x="-48" y="-48" width="171" height="219" filterUnits="userSpaceOnUse" color-interpolation-filters="sRGB">
<feFlood flood-opacity="0" result="BackgroundImageFix"/>
<feGaussianBlur in="BackgroundImage" stdDeviation="25"/>
<feComposite in2="SourceAlpha" operator="in" result="effect1_backgroundBlur_170_3483"/>
<feBlend mode="normal" in="SourceGraphic" in2="effect1_backgroundBlur_170_3483" result="shape"/>
</filter>
<clipPath id="clip0_170_3483">
<rect width="74" height="120" fill="white"/>
</clipPath>
<clipPath id="clip1_170_3483">
<rect width="128.166" height="111.811" fill="white" transform="translate(53.8311 -9) rotate(60)"/>
</clipPath>
</defs>
</svg>
