<svg width="21" height="22" viewBox="0 0 21 22" fill="none" xmlns="http://www.w3.org/2000/svg">
<path d="M20.6881 4.77325C19.9574 5.097 19.1726 5.31575 18.3474 5.41463C19.1988 4.90519 19.8358 4.10341 20.1394 3.15888C19.3396 3.63399 18.4641 3.96842 17.5512 4.14763C16.9373 3.49213 16.1241 3.05766 15.238 2.91167C14.3518 2.76567 13.4423 2.91632 12.6505 3.34022C11.8588 3.76413 11.2291 4.43757 10.8593 5.25599C10.4895 6.07442 10.4003 6.99203 10.6054 7.86638C8.98466 7.785 7.39911 7.36373 5.95168 6.62992C4.50426 5.8961 3.2273 4.86614 2.20369 3.60688C1.85369 4.21063 1.65244 4.91063 1.65244 5.65613C1.65205 6.32725 1.81732 6.98809 2.13358 7.58002C2.44985 8.17195 2.90733 8.67666 3.46544 9.04938C2.81818 9.02878 2.1852 8.85389 1.61919 8.53925V8.59175C1.61912 9.53302 1.94472 10.4453 2.54072 11.1739C3.13673 11.9024 3.96644 12.4023 4.88906 12.5888C4.28862 12.7513 3.65911 12.7752 3.04806 12.6588C3.30837 13.4687 3.81543 14.1769 4.49826 14.6843C5.18108 15.1917 6.00549 15.4729 6.85606 15.4885C5.41217 16.622 3.62896 17.2368 1.79331 17.2341C1.46815 17.2342 1.14325 17.2152 0.820312 17.1773C2.6836 18.3753 4.85261 19.0111 7.06781 19.0086C14.5666 19.0086 18.6659 12.7979 18.6659 7.41138C18.6659 7.23638 18.6616 7.05963 18.6537 6.88463C19.4511 6.30798 20.1394 5.59391 20.6863 4.77588L20.6881 4.77325Z" fill="white"/>
</svg>
